<svg width="65" height="65" viewBox="0 0 65 65" fill="none" xmlns="http://www.w3.org/2000/svg">
<path d="M42.4663 0C60.6662 0 64.9995 4.33334 64.9995 22.5333V42.4667C64.9995 60.6667 60.6662 65 42.4663 65H22.5332C4.3333 65 0 60.6667 0 42.4667V22.5333C0 4.33334 4.3333 0 22.5332 0H42.4663Z" fill="#0077FF"/>
<path d="M64.7017 49.4132C60.427 51.0834 55.7748 52.0001 50.9085 52.0001C43.6614 52.0001 36.8892 49.9669 31.1312 46.4398C30.6459 46.1425 30.0442 46.1074 29.5242 46.3386C25.9439 47.9304 21.9186 48.7663 17.4134 49.128C16.1695 49.2279 15.3323 47.9119 15.8656 46.7837C17.6449 43.0191 18.81 39.6128 19.5203 36.2232C19.6096 35.7973 19.5139 35.3557 19.2736 34.9929C15.304 28.9989 12.9922 21.8112 12.9922 14.0834C12.9922 9.21703 13.909 4.56474 15.5792 0.28987C17.6328 0.0875046 19.939 0 22.5253 0H42.4585C60.6583 0 64.9916 4.33334 64.9916 22.5333V42.4667C64.9916 45.0531 64.9041 47.3595 64.7017 49.4132Z" fill="#77BEFF"/>
<path d="M63.5021 55.5528C59.5136 56.7623 55.2849 57.4119 50.9111 57.4119C43.316 57.4119 36.1644 55.4535 29.9482 52.0119C26.1394 53.4436 22.0763 54.1831 17.8494 54.5225C12.066 54.9868 8.82686 49.0006 10.971 44.4642C12.3219 41.6059 13.2512 39.0479 13.8774 36.5895C9.88041 30.0258 7.57812 22.3139 7.57812 14.0786C7.57812 9.7047 8.22776 5.476 9.43724 1.48749C11.1767 0.905543 13.2108 0.518799 15.5817 0.285156C13.9115 4.56 12.9947 9.21224 12.9947 14.0786C12.9947 21.8063 15.3065 28.9941 19.2762 34.9881C19.5165 35.3508 19.6121 35.7925 19.5229 36.2184C19.0107 38.6624 18.2621 41.1151 17.2173 43.7045L17.2147 43.7111C17.1508 43.8694 17.0858 44.0282 17.0196 44.1876C16.6682 45.0346 16.285 45.8969 15.8681 46.7789C15.3349 47.9071 16.172 49.223 17.4159 49.1232C18.3665 49.0468 19.2958 48.9494 20.204 48.8282C20.4416 48.7965 20.6779 48.7632 20.9127 48.7282L20.9385 48.7243C24.0487 48.2586 26.9069 47.4986 29.5267 46.3338C30.0467 46.1026 30.6484 46.1377 31.1337 46.435C36.8918 49.9621 43.664 51.9953 50.9111 51.9953C55.7774 51.9953 60.4296 51.0785 64.7044 49.4083C64.4708 51.7792 64.084 53.8133 63.5021 55.5528Z" fill="white"/>
<path fill-rule="evenodd" clip-rule="evenodd" d="M29.5016 10.239C31.2501 10.0335 32.7029 11.4709 33.5418 13.1488L34.4825 15.0302C35.5645 17.1942 34.7872 19.8264 32.7032 21.0554C32.3687 21.2527 32.2635 21.6911 32.4812 22.0171C33.8397 24.0512 35.4167 25.9826 37.212 27.778C39.0074 29.5734 40.9387 31.1504 42.9729 32.5089C43.2989 32.7266 43.7372 32.6214 43.9345 32.2868C45.1635 30.2029 47.7958 29.4255 49.9597 30.5075L51.8411 31.4482C53.5189 32.2871 54.9563 33.74 54.7508 35.4884C54.6406 36.4262 54.2541 37.2591 53.542 37.9712C51.738 39.7753 48.5679 40.0641 44.8709 38.9417C41.1861 37.823 37.038 35.3164 33.3559 31.6342C29.6737 27.952 27.1671 23.8039 26.0484 20.1191C24.926 16.422 25.2148 13.2519 27.0189 11.4478C27.731 10.7357 28.5639 10.3493 29.5016 10.239Z" fill="white"/>
</svg>
