<svg width="65" height="65" viewBox="0 0 65 65" fill="none" xmlns="http://www.w3.org/2000/svg">
<g clip-path="url(#clip0_440_7055)">
<path d="M31.148 65C16.51 65 9.152 65 4.602 60.476C1.15296e-06 55.926 0 48.568 0 33.878V31.174C0 16.484 1.15296e-06 9.12601 4.602 4.57601C9.152 5.47657e-06 16.51 0 31.148 0H33.852C48.542 0 55.848 5.47657e-06 60.45 4.57601C65 9.15201 65 16.484 65 31.174V33.878C65 48.568 65 55.926 60.45 60.476C55.848 65 48.542 65 33.852 65H31.148Z" fill="#0077FF"/>
<circle cx="41.2154" cy="22.6089" r="31.7935" fill="#08E697"/>
<path d="M19.7031 33.2723H26.732L31.8013 26.2172L37.1554 39.8883L43.6041 9.68945L48.9139 32.0308C49.0869 32.7585 49.737 33.2723 50.4851 33.2723H57.169" stroke="white" stroke-width="5.81368" stroke-linecap="round" stroke-linejoin="round"/>
</g>
<defs>
<clipPath id="clip0_440_7055">
<rect width="65" height="65" rx="18.9583" fill="white"/>
</clipPath>
</defs>
</svg>
