<svg width="65" height="65" viewBox="0 0 65 65" fill="none" xmlns="http://www.w3.org/2000/svg">
<g clip-path="url(#clip0_440_7177)">
<path d="M0 30.5882C0 16.1688 0 8.95909 4.47954 4.47954C8.95909 0 16.1688 0 30.5882 0H34.4118C48.8312 0 56.0409 0 60.5205 4.47954C65 8.95909 65 16.1688 65 30.5882V34.4118C65 48.8312 65 56.0409 60.5205 60.5205C56.0409 65 48.8312 65 34.4118 65H30.5882C16.1688 65 8.95909 65 4.47954 60.5205C0 56.0409 0 48.8312 0 34.4118V30.5882Z" fill="#3D3BFF"/>
<mask id="mask0_440_7177" style="mask-type:alpha" maskUnits="userSpaceOnUse" x="0" y="0" width="65" height="65">
<rect x="2.64192" y="2.64192" width="59.7161" height="59.7161" fill="white" stroke="black" stroke-width="5.28384"/>
</mask>
<g mask="url(#mask0_440_7177)">
<path d="M32.6523 12.623C37.6477 12.623 40.7733 14.744 43.8154 17.4541L41.165 20.3848C38.498 18.0311 35.9567 16.4347 32.8379 16.4346C28.969 16.4346 25.1504 18.9205 25.1504 22.498C25.1505 25.7393 27.0205 27.8034 33.6221 29.8164C39.6686 31.6716 45.2197 34.5467 45.2197 41.4268L45.2197 41.4277C45.2197 47.7748 40.1453 52.3779 32.0859 52.3779C27.4128 52.2488 22.9842 50.2683 19.7812 46.876L22.4766 43.9063C24.9993 46.2991 27.9682 48.625 32.0332 48.625C36.5483 48.6248 41.416 46.1025 41.416 41.5732C41.416 37.8113 38.4151 35.3577 32.1084 33.4229C24.9213 31.2347 21.2705 28.2644 21.2705 22.6816C21.2708 17.1569 25.9644 12.6231 32.6523 12.623Z" fill="white"/>
</g>
</g>
<defs>
<clipPath id="clip0_440_7177">
<rect width="65" height="65" fill="white"/>
</clipPath>
</defs>
</svg>
