<svg preserveAspectRatio="none" overflow="visible" style="display: block;" width="20.5" height="15" viewBox="0 0 20.5 15" fill="none" xmlns="http://www.w3.org/2000/svg">
<path id="&#226;&#134;&#179; Icon Color" d="M0 7.5C0 8.33 0.67 9 1.5 9C2.33 9 3 8.33 3 7.5C3 6.67 2.33 6 1.5 6C0.67 6 0 6.67 0 7.5ZM0 1.5C0 2.33 0.67 3 1.5 3C2.33 3 3 2.33 3 1.5C3 0.67 2.33 0 1.5 0C0.67 0 0 0.67 0 1.5ZM0 13.5C0 14.3233 0.676692 15 1.5 15C2.32331 15 3 14.3233 3 13.5C3 12.6767 2.33459 12 1.5 12C0.665414 12 0 12.6767 0 13.5ZM20.5 13.5C20.5 12.9477 20.0523 12.5 19.5 12.5H5.5C4.94772 12.5 4.5 12.9477 4.5 13.5C4.5 14.0523 4.94772 14.5 5.5 14.5H19.5C20.0523 14.5 20.5 14.0523 20.5 13.5ZM20.5 7.5C20.5 6.94772 20.0523 6.5 19.5 6.5H5.5C4.94772 6.5 4.5 6.94772 4.5 7.5C4.5 8.05228 4.94772 8.5 5.5 8.5H19.5C20.0523 8.5 20.5 8.05228 20.5 7.5ZM5.5 2.5H19.5C20.0523 2.5 20.5 2.05228 20.5 1.5C20.5 0.947715 20.0523 0.5 19.5 0.5H5.5C4.94772 0.5 4.5 0.947715 4.5 1.5C4.5 2.05228 4.94772 2.5 5.5 2.5Z" fill="black"/>
</svg>
